PathFileType	4	(X/Y/Z)	c:/Users/goper/Files/vsCode/490R/osim_files/A03/A03_Static03.trc
DataRate	CameraRate	NumFrames	NumMarkers	Units                	OrigDataRate	OrigDataStartFrame	OrigNumFrames
250.00	250.00	5	36	mm	250.0	1246	1993
                Frame#	Time	LPSIS			LASIS			LTH1			LTH2			LTH3			LTH4			LLFE			LMFE			LSH1			LSH2			LSH3			LSH4			LLMAL			LMMAL			LCAL			LMTP5			LTOE			LMTP1			RPSIS			RASIS			RTH1			RTH2			RTH3			RTH4			RLFE			RMFE			RSH1			RSH2			RSH3			RSH4			RLMAL			RMMAL			RCAL			RMTP1			RTOE			RMTP5		
		X1	Y1	Z1	X2	Y2	Z2	X3	Y3	Z3	X4	Y4	Z4	X5	Y5	Z5	X6	Y6	Z6	X7	Y7	Z7	X8	Y8	Z8	X9	Y9	Z9	X10	Y10	Z10	X11	Y11	Z11	X12	Y12	Z12	X13	Y13	Z13	X14	Y14	Z14	X15	Y15	Z15	X16	Y16	Z16	X17	Y17	Z17	X18	Y18	Z18	X19	Y19	Z19	X20	Y20	Z20	X21	Y21	Z21	X22	Y22	Z22	X23	Y23	Z23	X24	Y24	Z24	X25	Y25	Z25	X26	Y26	Z26	X27	Y27	Z27	X28	Y28	Z28	X29	Y29	Z29	X30	Y30	Z30	X31	Y31	Z31	X32	Y32	Z32	X33	Y33	Z33	X34	Y34	Z34	X35	Y35	Z35	X36	Y36	Z36

1246	4.98000	-347.45740	1045.58154	433.82071	-99.73228	992.74554	315.33090	-160.86577	645.33600	242.01900	-149.66740	603.58423	238.40569	-98.98927	651.58905	256.30322	-98.91424	607.91882	251.86539	-151.26398	556.63055	243.39743	-125.26405	529.97778	396.30786	-207.62686	477.53952	239.30338	-212.40263	429.25287	236.43158	-146.41859	463.09818	239.38765	-162.08966	417.85687	240.44341	-260.98822	105.45675	236.77319	-243.66313	104.76605	329.85147	-328.81403	85.92555	294.43286	-116.92161	41.07045	207.73875	-80.12949	68.45254	274.23138	-106.78967	48.07514	321.72659	-350.30249	1052.29688	512.39435	-105.04820	990.65674	621.42426	-202.00087	628.91821	692.34650	-195.90851	584.55646	690.10016	-140.97720	630.98395	696.48840	-141.27840	586.41016	693.96924	-174.67438	545.42389	683.50061	-115.53376	537.77014	570.56744	-233.07056	485.34088	680.68903	-243.54111	447.14148	696.04822	-175.15202	469.78085	696.84814	-194.75842	428.94193	709.44000	-278.44312	129.96858	688.84241	-234.56921	128.57849	611.41260	-334.82367	85.73806	637.23969	-120.98029	48.19095	609.62543	-94.11068	71.16217	659.84003	-129.90756	41.57841	728.36041
1247	4.98400	-347.55930	1045.62012	433.83249	-99.82104	992.74091	315.37833	-160.86743	645.28687	242.03589	-149.67557	603.60614	238.42366	-99.00562	651.58636	256.33170	-98.93880	607.93530	251.89355	-151.28110	556.62567	243.42203	-125.30707	529.96460	396.34341	-207.63611	477.54034	239.31512	-212.36902	429.25076	236.42075	-146.43039	463.11725	239.41698	-162.09407	417.87402	240.47023	-260.97437	105.46288	236.79005	-243.66502	104.77910	329.83826	-328.80118	85.91464	294.45276	-116.90623	41.08721	207.73999	-80.25063	68.36138	274.22141	-106.81326	48.06761	321.71487	-350.44980	1052.29602	512.40131	-105.58796	990.39105	621.42358	-201.97835	628.92078	692.34631	-195.91522	584.52899	690.07263	-140.98880	630.94281	696.41998	-141.29114	586.35669	693.87396	-174.67346	545.38300	683.44202	-115.65482	537.76477	570.42712	-233.08563	485.30679	680.68542	-243.53253	447.11807	696.07074	-175.15793	469.75134	696.78790	-194.76416	428.91278	709.40259	-278.47345	129.95186	688.84857	-234.60847	128.55812	611.35291	-334.87787	85.72800	637.24585	-121.03368	48.17955	609.61768	-94.15275	71.16047	659.81860	-129.91348	41.61109	728.31641
1248	4.98800	-347.65555	1045.64172	433.81061	-99.91331	992.73370	315.44205	-160.90457	645.30829	242.07620	-149.68871	603.60358	238.44875	-99.04751	651.60669	256.37210	-98.97881	607.93555	251.93146	-151.16646	556.75067	243.47501	-125.34037	529.96100	396.35489	-207.66522	477.54056	239.34805	-212.37927	429.26544	236.43616	-146.44579	463.12164	239.43524	-162.11656	417.87216	240.47540	-260.97147	105.44800	236.78062	-243.68796	104.78237	329.84622	-328.80106	85.92850	294.43436	-116.90327	41.07903	207.73300	-80.15816	68.44312	274.25565	-106.81989	48.07438	321.72086	-350.49750	1052.26147	512.40234	-105.74821	990.37030	621.46307	-201.96793	628.90143	692.33789	-195.90123	584.48810	690.06421	-140.96327	630.88568	696.35248	-141.27660	586.34387	693.78668	-174.70154	545.34680	683.40747	-115.79929	537.75464	570.29327	-232.79669	485.26733	681.28217	-243.54172	447.09619	696.07892	-175.13377	469.71710	696.73242	-194.69608	428.88702	709.37561	-278.49597	129.93005	688.80316	-234.58760	128.56046	611.30957	-334.86914	85.66470	637.23706	-121.02312	48.20086	609.59875	-94.16611	71.17180	659.78296	-129.92542	41.64462	728.31238
1249	4.99200	-347.75952	1045.68726	433.83051	-99.98254	992.71942	315.51102	-160.89563	645.33752	242.09187	-149.71730	603.61786	238.48778	-99.08636	651.60498	256.40335	-99.00888	607.96783	251.96788	-151.21214	556.74304	243.51047	-125.34741	529.95709	396.37738	-207.67114	477.55484	239.36406	-212.59724	429.38803	236.66614	-146.50966	463.26617	239.28569	-162.14850	417.86630	240.49008	-260.97260	105.46737	236.78320	-243.66452	104.78255	329.85825	-328.83597	85.94882	294.44263	-116.90314	41.09982	207.72858	-80.21429	68.39808	274.27588	-106.80421	48.06147	321.70886	-350.64819	1052.26562	512.38074	-105.85248	990.33643	621.49414	-201.92474	628.85229	692.36725	-195.85114	584.45020	690.05609	-140.93684	630.84229	696.26221	-141.26508	586.26721	693.68097	-174.67255	545.29510	683.33380	-115.94534	537.73743	570.16046	-232.79663	485.22845	681.30817	-243.48500	447.06332	696.10681	-175.09497	469.66385	696.69745	-194.67168	428.81937	709.32990	-278.49911	129.90810	688.81641	-234.64571	128.54709	611.25201	-334.90231	85.65098	637.26501	-121.01746	48.20115	609.58124	-94.17439	71.19305	659.75262	-129.91325	41.64714	728.27100
1250	4.99600	-347.86813	1045.68689	433.81793	-100.08073	992.70032	315.56705	-160.89417	645.38000	242.10291	-149.71259	603.62848	238.50365	-99.09582	651.63867	256.45294	-99.03043	607.97064	251.99394	-151.21309	556.77094	243.52576	-125.34711	529.97882	396.41840	-207.69208	477.57175	239.37354	-212.63454	429.40683	236.67059	-146.53844	463.27618	239.30696	-162.15067	417.87311	240.51028	-260.95490	105.46609	236.76427	-243.65056	104.78555	329.87094	-328.80804	85.95504	294.41803	-116.89498	41.10396	207.72916	-80.15799	68.45024	274.23398	-106.77026	48.09180	321.72040	-350.75534	1052.26953	512.40710	-105.95606	990.32025	621.52838	-201.88766	628.82147	692.35944	-195.80968	584.40485	690.03320	-140.87106	630.80060	696.16858	-141.23381	586.24585	693.59009	-174.65894	545.27832	683.26794	-116.09021	537.71930	570.02118	-232.76907	485.19705	681.31018	-243.45515	446.98822	696.12439	-175.03569	469.64661	696.63446	-194.61729	428.78937	709.27106	-278.40753	129.85683	688.73138	-234.67908	128.50673	611.20612	-334.96576	85.56399	637.28589	-121.02605	48.20595	609.56763	-94.17096	71.21397	659.75940	-129.87581	41.69094	728.28339
